<?xml version="1.0" encoding="UTF-8" standalone="no" ?>
<!DOCTYPE svg PUBLIC "-//W3C//DTD SVG 1.1//EN" "http://www.w3.org/Graphics/SVG/1.1/DTD/svg11.dtd">
<svg xmlns="http://www.w3.org/2000/svg" xmlns:xlink="http://www.w3.org/1999/xlink" version="1.1" width="460" height="80" viewBox="0 0 460 80" xml:space="preserve">
<desc>Created with Fabric.js 3.6.3</desc>
<defs>
</defs>
<g transform="matrix(4.71 0 0 4.71 43.31 37.14)"  >
<path style="stroke: none; stroke-width: 1; stroke-dasharray: none; stroke-linecap: butt; stroke-dashoffset: 0; stroke-linejoin: miter; stroke-miterlimit: 4; fill: rgb(0,56,130); fill-rule: evenodd; opacity: 1;"  transform=" translate(-335.99, -472.36)" d="m 329.75202 470.27969 l 2.59766 1.7334 l 3.12011 -2.08008 l -1.29882 -0.86915 l 1.68945 -1.12304 l 3.6377 2.42675 l -5.97657 3.98438 l 1.29883 0.86914 l 7.41211 -4.9414 l -6.24024 -4.16017 z m 12.48047 4.16015 l -2.60253 -1.73339 l -3.12013 2.08007 l 1.29883 0.86425 l -1.68946 1.12794 l -3.63768 -2.42676 l 5.97656 -3.98438 l -1.29884 -0.86913 l -7.40722 4.9414 l 6.24023 4.16016 z m 0 -6.58692 l -1.30371 0.86915 l -1.29882 -0.86915 l 2.60253 -1.7334 z m -12.48047 9.01368 l 1.29882 -0.86914 l 1.29884 0.86914 l -2.59766 1.7334 z" stroke-linecap="round" />
</g>
<g transform="matrix(4.71 0 0 4.71 263.98 41.6)"  >
<path style="stroke: none; stroke-width: 1; stroke-dasharray: none; stroke-linecap: butt; stroke-dashoffset: 0; stroke-linejoin: miter; stroke-miterlimit: 4; fill: rgb(0,56,130); fill-rule: evenodd; opacity: 1;"  transform=" translate(-381.78, -472.46)" d="m 348.13093 476.51504 c 0.81543 0 2.84179 -0.0928 2.84179 -2.19727 c 0 -1.14257 -0.35644 -1.93847 -1.72363 -2.10937 c 1.04493 -0.20508 1.56738 -0.89844 1.56738 -1.85548 c 0 -1.77246 -1.20605 -2.15331 -2.67578 -2.15331 l -3.41308 0 l 0 8.31543 z m 61.25488 0 c 1.14259 0 2.29493 -0.15137 2.29493 -1.91407 c 0 -2.03613 -2.94922 -1.83105 -2.94922 -3.125 c 0 -0.46875 0.28808 -0.72265 0.77148 -0.72265 l 1.58204 0 l 0 -1.04981 l -2.22169 0 c -1.82129 0 -2.2705 0.8252 -2.2705 1.88965 c 0 2.02636 3.2666 1.97754 3.2666 3.12011 c 0 0.45899 -0.24903 0.77149 -0.75195 0.77149 l -2.33888 0 l -1.7334 -5.77636 l -2.07518 0 l -1.91895 6.19629 l -1.20606 -2.66602 c 0.88379 -0.16113 1.23536 -0.72266 1.24024 -1.74805 c 0 -1.16211 -0.69336 -1.78222 -1.7627 -1.78222 l -3.24707 0 l 0 6.80664 l 1.77246 0 l 0 -5.76172 l 0.59082 0 c 0.49805 0 0.93262 0.3662 0.93262 1.03515 c 0 0.56642 -0.2832 1.03517 -0.7373 1.00587 l -0.49805 0.005 l 1.61621 3.71582 l 2.8418 0 l 0.4248 -1.50879 l 1.83594 0 l 0.41992 1.50879 z m -4.80956 -2.54883 l -1.31348 0 l 0.625 -2.78809 z m -19.77052 2.74903 c 2.65137 0 2.65137 -1.7627 2.65137 -3.56934 c 0 -1.83106 0 -3.57423 -2.65137 -3.57423 c -2.65136 0 -2.65136 1.74317 -2.65136 3.57423 c 0 1.80664 0 3.56934 2.65136 3.56934 m 0 -1.03517 c -0.77636 0 -0.8789 -0.76171 -0.8789 -2.53417 c 0 -1.77246 0.1025 -2.53906 0.8789 -2.53906 c 0.77637 0 0.87403 0.7666 0.87403 2.53906 c 0 1.77246 -0.0976 2.53417 -0.87403 2.53417 m -8.41796 0.83497 l 2.58789 0 c 2.71484 0 2.53417 -2.40234 2.53417 -3.45215 c 0 -2.12403 -0.39062 -3.37403 -2.4707 -3.37403 l -2.65136 0 z m 1.72851 -5.7666 l 0.69824 0 c 0.95215 0 0.95215 1.1084 0.95215 2.36327 c 0 1.71388 -0.16601 2.36818 -0.99609 2.36818 l -0.6543 0 z m 13.75488 2.13867 l 0.42969 0 c 0.83008 0 1.09375 0.4541 1.09375 1.18653 c 0 1.16698 -0.78613 1.17675 -1.13769 1.17675 l -0.91309 0 l 0 -2.34863 z m -0.52734 -1.26954 l 0 -2.12402 l 1.01563 0 c 0.55663 0 0.94726 0.44434 0.94726 1.05957 c 0 0.80567 -0.50293 1.05469 -0.85938 1.05469 l -0.57617 0 z m 1.30371 4.90235 c 0.81543 0 2.8418 -0.0928 2.8418 -2.20215 c 0 -1.14257 -0.35645 -1.9336 -1.71875 -2.10937 c 1.04492 -0.20508 1.56738 -0.89844 1.56738 -1.85548 c 0 -1.77246 -1.21094 -2.15331 -2.67578 -2.15331 l -3.41797 0 l 0 8.32031 z m 26.17676 -0.005 l 0 -1.03027 l -2.02148 0 l 0 -5.77636 l -1.72852 0 l 0 6.80663 z m -4.76563 -6.80663 l -1.73339 0 l 0 6.80663 l 1.73339 0 z m -42.20214 7.00683 c 2.65136 0 2.65136 -1.76758 2.65136 -3.58398 c 0 -1.84083 0 -3.58887 -2.65136 -3.58887 c -2.64649 0 -2.64649 1.74804 -2.64649 3.58887 c 0 1.8164 0 3.58398 2.64649 3.58398 m 0 -1.03516 c -0.77637 0 -0.87402 -0.77149 -0.87402 -2.54882 c 0 -1.78223 0.0976 -2.54883 0.87402 -2.54883 c 0.77636 0 0.8789 0.7666 0.8789 2.54883 c 0 1.77733 -0.1025 2.54882 -0.8789 2.54882 m -17.1338 -1.71875 l -1.31835 0 l 0.625 -2.7832 z m -1.99706 2.55371 l 0.42968 -1.50878 l 1.83594 0 l 0.41993 1.50878 l 1.81151 0 l -2.04589 -6.80663 l -2.07031 0 l -2.08985 6.80663 z m 13.59375 0.2002 c 1.5039 0 2.38281 -0.59571 2.38281 -2.45117 l -1.71388 0 c -0.0195 0.54687 -0.0292 1.41601 -0.66893 1.41601 c -0.72754 0 -0.83497 -0.44434 -0.83497 -2.54882 c 0 -2.18262 0.16602 -2.54883 0.80078 -2.54883 c 0.45411 0 0.65919 0.34179 0.65919 1.26953 l 1.7041 0 c 0.0635 -1.49414 -0.7666 -2.30957 -2.40723 -2.30957 c -2.44141 0 -2.50976 1.55273 -2.50976 3.58887 c 0 2.0459 -0.0635 3.58398 2.58789 3.58398 m -7.22169 -0.2002 l 0 -4.53613 l 1.88965 4.53613 l 2.0459 0 l 0 -6.80663 l -1.47461 0 l 0 4.39941 l -1.84082 -4.39941 l -2.09472 0 l 0 6.80663 z m -11.86035 -3.6377 l 0.26856 0 c 1.01563 0 1.33789 0.44923 1.33789 1.18653 c 0 1.16211 -0.96191 1.17187 -1.3916 1.17187 l -0.62989 0 l 0 -2.34862 z m -0.41504 -1.27441 l 0 -2.12402 l 0.75195 0 c 0.6836 0 1.16211 0.44922 1.16211 1.05957 c 0 0.80566 -0.61523 1.05958 -1.05468 1.05958 l -0.708 0 z" stroke-linecap="round" />
</g>
</svg>